<?xml version="1.0" standalone="no"?>
<!DOCTYPE svg PUBLIC "-//W3C//DTD SVG 20010904//EN"
 "http://www.w3.org/TR/2001/REC-SVG-20010904/DTD/svg10.dtd">
<svg version="1.0" xmlns="http://www.w3.org/2000/svg"
 width="2048.000000pt" height="2048.000000pt" viewBox="0 0 2048.000000 2048.000000"
 preserveAspectRatio="xMidYMid meet">

<g transform="translate(0.000000,2048.000000) scale(0.100000,-0.100000)"
fill="#000000" stroke="none">
<path d="M11912 14751 c-7 -4 -25 -6 -39 -3 -17 3 -24 1 -19 -6 4 -6 13 -9 21
-5 8 3 15 2 15 -1 0 -15 -180 -187 -190 -181 -6 4 -7 -1 -3 -11 5 -13 3 -16
-10 -11 -12 4 -14 2 -10 -11 3 -9 3 -14 -2 -10 -4 4 -16 -3 -26 -15 -18 -20
-18 -20 -12 -2 6 19 6 19 -14 2 -19 -17 -20 -16 -21 18 -1 23 4 38 13 41 21 8
21 84 0 84 -8 0 -15 -7 -15 -15 0 -13 -4 -14 -21 -5 -16 9 -20 19 -17 53 l3
42 55 1 c30 0 90 4 132 8 78 8 113 2 87 -15 -10 -6 -10 -9 -2 -9 19 0 22 14 8
33 -12 16 -135 17 -2441 14 l-2429 -2 -115 -29 c-186 -45 -355 -117 -505 -214
-107 -68 -155 -111 -148 -130 4 -15 3 -15 -6 -2 -9 12 -24 1 -91 -65 -135
-132 -304 -375 -284 -406 4 -7 3 -9 -3 -6 -11 7 -59 -93 -93 -194 -28 -81 -57
-221 -70 -334 -14 -124 -14 -6118 0 -6235 43 -357 194 -665 451 -921 211 -210
475 -349 801 -421 l103 -23 3225 0 3225 0 103 23 c255 56 451 143 647 287 292
215 492 532 578 919 l22 101 0 3165 0 3165 -23 102 c-66 301 -202 552 -411
764 -58 58 -140 131 -181 161 -234 172 -510 273 -806 298 -144 12 -1464 13
-1482 1z m-249 -18 c-40 -2 -107 -2 -150 0 -43 1 -10 3 72 3 83 0 118 -2 78
-3z m-146 -90 c-3 -2 -13 -3 -23 -1 -16 3 -16 4 2 22 18 18 19 18 22 2 2 -10
1 -20 -1 -23z m55 -198 c4 -21 3 -23 -14 -14 -15 8 -16 12 -6 24 7 8 14 14 14
15 1 0 4 -11 6 -25z m-5277 -14 c3 -5 2 -12 -3 -15 -5 -3 -9 1 -9 9 0 17 3 19
12 6z m4945 -342 c12 -9 12 -10 -4 -5 -10 4 -26 1 -35 -6 -14 -12 -14 -11 -2
5 16 20 21 21 41 6z m-30 -43 c0 -3 -4 -8 -10 -11 -5 -3 -10 -1 -10 4 0 6 5
11 10 11 6 0 10 -2 10 -4z m-65 -26 c3 -5 1 -10 -4 -10 -6 0 -11 5 -11 10 0 6
2 10 4 10 3 0 8 -4 11 -10z m-55 -40 c0 -5 -4 -10 -10 -10 -5 0 -10 5 -10 10
0 6 5 10 10 10 6 0 10 -4 10 -10z m-5260 -174 c0 -2 -8 -10 -17 -17 -16 -13
-17 -12 -4 4 13 16 21 21 21 13z m-70 -190 c0 -2 -8 -10 -17 -17 -16 -13 -17
-12 -4 4 13 16 21 21 21 13z m4740 -180 c0 -3 -4 -8 -10 -11 -5 -3 -10 -1 -10
4 0 6 5 11 10 11 6 0 10 -2 10 -4z m-51 -148 c-13 -24 -18 -23 -12 2 3 11 0
20 -6 20 -6 0 -11 5 -11 10 0 6 8 5 19 -2 15 -9 17 -16 10 -30z m-70 -42 c9
-11 8 -15 -5 -20 -20 -8 -39 7 -30 23 10 15 21 14 35 -3z m-3009 -24 c97 -34
174 -79 241 -139 35 -33 294 -290 576 -571 281 -282 514 -512 516 -512 3 0 51
-47 108 -105 56 -57 107 -101 112 -98 6 4 7 1 2 -7 -5 -8 205 -225 654 -674
l661 -661 1277 1277 c703 702 1304 1301 1336 1330 248 225 571 237 807 30 68
-61 134 -152 163 -226 48 -125 46 -46 47 -2624 0 -2703 5 -2502 -70 -2653 -71
-141 -226 -275 -368 -319 -104 -33 -238 -37 -344 -11 -174 41 -292 126 -393
281 -53 82 -81 156 -94 254 -8 53 -11 585 -11 1663 0 1042 -3 1584 -10 1581
-5 -2 -387 -379 -847 -839 -511 -510 -863 -854 -903 -881 -184 -128 -359 -183
-590 -183 -223 0 -389 50 -580 173 -66 43 -1042 1011 -1033 1025 3 6 2 7 -4 4
-5 -3 -171 156 -369 354 -197 197 -361 359 -364 359 -3 0 -5 -732 -6 -1628 -1
-1262 -4 -1640 -14 -1687 -14 -68 -66 -179 -112 -239 -77 -101 -185 -179 -310
-224 -64 -24 -88 -27 -198 -26 -200 0 -315 47 -452 185 -89 89 -137 175 -167
296 -19 75 -20 140 -25 1828 -4 963 -6 2064 -6 2448 0 672 1 700 21 775 11 42
34 105 51 140 53 110 182 230 305 283 116 50 283 59 393 21z m2570 -406 c0 -3
-4 -8 -10 -11 -5 -3 -10 -1 -10 4 0 6 5 11 10 11 6 0 10 -2 10 -4z m-23 -29
c4 -5 -1 -5 -12 -1 -19 7 -19 7 -2 -13 16 -19 16 -21 2 -27 -9 -3 -21 -4 -26
0 -5 3 -9 1 -9 -5 0 -5 6 -12 13 -15 6 -3 2 -3 -10 0 -17 4 -23 1 -23 -10 0
-9 -5 -16 -11 -16 -7 0 -6 8 3 23 21 32 28 65 14 70 -6 2 3 4 21 3 17 -1 35
-5 40 -9z m33 -1 c0 -3 -4 -8 -10 -11 -5 -3 -10 -1 -10 4 0 6 5 11 10 11 6 0
10 -2 10 -4z m-145 -136 c-3 -5 -14 -10 -23 -9 -14 0 -13 2 3 9 27 11 27 11
20 0z m-25 -34 c0 -3 -4 -8 -10 -11 -5 -3 -10 -1 -10 4 0 6 5 11 10 11 6 0 10
-2 10 -4z m-60 -46 c8 -5 11 -10 5 -10 -5 0 -17 5 -25 10 -8 5 -10 10 -5 10 6
0 17 -5 25 -10z m-130 -114 c-7 -7 -13 -7 -20 0 -6 6 -3 10 10 10 13 0 16 -4
10 -10z m-228 -228 c-7 -7 -12 -8 -12 -2 0 14 12 26 19 19 2 -3 -1 -11 -7 -17z
m-72 -63 c-7 -8 -17 -15 -23 -15 -6 0 -2 7 9 15 25 19 30 19 14 0z m-77 -84
c3 -13 1 -18 -9 -14 -7 2 -10 11 -7 19 7 19 10 18 16 -5z m-2636 -68 c-3 -10
-5 -2 -5 17 0 19 2 27 5 18 2 -10 2 -26 0 -35z m2423 -172 c0 -5 -7 -12 -16
-15 -14 -5 -15 -4 -4 9 14 17 20 19 20 6z m-2530 -1926 c0 -1 -15 -14 -32 -31
-18 -16 -24 -19 -14 -7 10 12 16 26 13 30 -3 5 3 9 14 9 10 0 19 -1 19 -1z
m-446 -420 c-7 -18 16 -31 27 -14 5 8 9 10 9 4 0 -5 -34 -44 -75 -85 -68 -67
-75 -71 -73 -47 2 22 6 26 23 21 20 -7 20 -6 1 15 -11 11 -16 24 -13 28 4 4
14 -2 22 -13 8 -10 14 -14 14 -9 0 16 -25 45 -32 38 -4 -3 -7 3 -7 15 0 18 6
21 38 20 20 0 43 -5 50 -11 7 -5 16 -7 19 -3 4 4 1 11 -7 16 -19 12 -22 50 -4
43 7 -2 10 -11 8 -18z m53 3 c-3 -8 -6 -5 -6 6 -1 11 2 17 5 13 3 -3 4 -12 1
-19z m-197 -154 c0 -8 -4 -12 -10 -9 -5 3 -10 2 -10 -4 0 -5 5 -13 10 -16 6
-3 10 -11 10 -16 0 -6 -7 -3 -16 6 -13 13 -19 14 -25 4 -4 -8 -10 -11 -14 -8
-5 5 42 59 51 59 2 0 4 -7 4 -16z m-22 -66 c-5 -14 -58 -23 -58 -10 0 5 11 8
25 7 14 -2 25 1 25 6 0 5 3 9 6 9 3 0 4 -5 2 -12z"/>
<path d="M9875 12770 c-3 -5 -1 -10 4 -10 6 0 11 5 11 10 0 6 -2 10 -4 10 -3
0 -8 -4 -11 -10z"/>
<path d="M5960 9430 c0 -5 4 -10 9 -10 6 0 13 5 16 10 3 6 -1 10 -9 10 -9 0
-16 -4 -16 -10z"/>
<path d="M11700 14609 c0 -5 5 -7 10 -4 6 3 10 8 10 11 0 2 -4 4 -10 4 -5 0
-10 -5 -10 -11z"/>
<path d="M11616 14523 c-6 -14 -5 -15 5 -6 7 7 10 15 7 18 -3 3 -9 -2 -12 -12z"/>
</g>
</svg>
